<svg width="50" height="51" viewBox="0 0 50 51" fill="none" xmlns="http://www.w3.org/2000/svg">
<g clip-path="url(#clip0_1_560)">
<path d="M19.1406 13.3387L25 0.83601H40.9829L42.1502 13.3387H19.1406Z" fill="#F8C67C"/>
<path d="M7.84949 13.3387L9.01677 0.83601H24.9997V13.3387H7.84949Z" fill="#F8C67C"/>
<path d="M25 50.8361L19.1406 28.7657L25 6.69543H34.8576C36.6864 6.69543 38.4381 7.37366 39.79 8.6053C41.142 9.83694 41.9802 11.518 42.1501 13.3388L45.6509 50.8361H25Z" fill="#F39321"/>
<path d="M10.2098 8.6053C11.5618 7.37366 13.3134 6.69543 15.1422 6.69543H24.9999V50.8361H4.34888L7.84966 13.3388C8.01968 11.5179 8.85786 9.83684 10.2098 8.6053Z" fill="#F3A141"/>
</g>
<defs>
<clipPath id="clip0_1_560">
<rect width="50" height="50" fill="white" transform="matrix(1 0 0 -1 0 50.8361)"/>
</clipPath>
</defs>
</svg>
